<svg xmlns="http://www.w3.org/2000/svg" xmlns:xlink="http://www.w3.org/1999/xlink" width="1080" zoomAndPan="magnify" viewBox="0 0 810 809.999993" height="1080" preserveAspectRatio="xMidYMid meet" version="1.0"><defs><g/><clipPath id="8bf1bf9897"><rect x="0" width="810" y="0" height="553"/></clipPath></defs><g transform="matrix(1, 0, 0, 1, 0, 128)"><g clip-path="url(#8bf1bf9897)"><g fill="#000000" fill-opacity="1"><g transform="translate(0.0000035, 230.684122)"><g><path d="M 14.765625 0 L 14.765625 -3.765625 C 19.203125 -5.117188 22.238281 -8.015625 23.875 -12.453125 C 25.519531 -16.890625 26.34375 -24.992188 26.34375 -36.765625 L 26.34375 -165.90625 C 26.34375 -177.875 25.519531 -186.03125 23.875 -190.375 C 22.238281 -194.71875 19.203125 -197.566406 14.765625 -198.921875 L 14.765625 -202.6875 L 73.546875 -202.6875 C 93.617188 -202.6875 109.394531 -199.882812 120.875 -194.28125 C 132.363281 -188.6875 140.519531 -181.546875 145.34375 -172.859375 C 150.175781 -164.171875 152.59375 -155.097656 152.59375 -145.640625 C 152.59375 -126.335938 145.691406 -110.601562 131.890625 -98.4375 C 118.085938 -86.28125 97.675781 -80.203125 70.65625 -80.203125 L 50.09375 -80.203125 L 50.09375 -36.765625 C 50.09375 -24.992188 50.910156 -16.890625 52.546875 -12.453125 C 54.191406 -8.015625 57.234375 -5.117188 61.671875 -3.765625 L 61.671875 0 Z M 50.09375 -84.546875 L 70.078125 -84.546875 C 88.597656 -84.546875 102.734375 -89.367188 112.484375 -99.015625 C 122.234375 -108.671875 127.109375 -121.992188 127.109375 -138.984375 C 127.109375 -149.410156 124.9375 -159.109375 120.59375 -168.078125 C 116.25 -177.054688 109.347656 -184.34375 99.890625 -189.9375 C 90.429688 -195.539062 77.882812 -198.34375 62.25 -198.34375 C 60.320312 -198.34375 58.25 -198.289062 56.03125 -198.1875 C 53.8125 -198.09375 51.832031 -197.953125 50.09375 -197.765625 Z M 50.09375 -84.546875 "/></g></g></g><g fill="#000000" fill-opacity="1"><g transform="translate(159.823774, 230.684122)"><g><path d="M 63.125 2.890625 C 47.875 2.890625 36.675781 -1.738281 29.53125 -11 C 22.394531 -20.269531 18.828125 -33.203125 18.828125 -49.796875 L 18.828125 -103.375 C 18.828125 -110.125 18.390625 -115.1875 17.515625 -118.5625 C 16.648438 -121.945312 15.394531 -124.410156 13.75 -125.953125 C 12.113281 -127.492188 9.941406 -128.84375 7.234375 -130 L 7.234375 -133.1875 L 38.796875 -147.09375 L 41.40625 -145.0625 L 41.40625 -55.015625 C 41.40625 -38.609375 43.914062 -26.539062 48.9375 -18.8125 C 53.957031 -11.09375 62.253906 -7.234375 73.828125 -7.234375 C 82.328125 -7.234375 90.4375 -9.597656 98.15625 -14.328125 C 105.875 -19.054688 113.015625 -24.894531 119.578125 -31.84375 L 119.578125 -103.375 C 119.578125 -110.125 119.144531 -115.1875 118.28125 -118.5625 C 117.414062 -121.945312 116.160156 -124.410156 114.515625 -125.953125 C 112.867188 -127.492188 110.695312 -128.84375 108 -130 L 108 -133.1875 L 139.5625 -147.09375 L 142.171875 -145.0625 L 142.171875 -36.765625 C 142.171875 -24.992188 142.988281 -16.890625 144.625 -12.453125 C 146.269531 -8.015625 149.3125 -5.117188 153.75 -3.765625 L 153.75 0 L 129.140625 0 C 126.046875 0 123.675781 -0.867188 122.03125 -2.609375 C 120.394531 -4.347656 119.578125 -7.335938 119.578125 -11.578125 L 119.578125 -26.34375 C 112.242188 -18.625 103.703125 -11.820312 93.953125 -5.9375 C 84.203125 -0.0507812 73.925781 2.890625 63.125 2.890625 Z M 63.125 2.890625 "/></g></g></g><g fill="#000000" fill-opacity="1"><g transform="translate(323.701028, 230.684122)"><g><path d="M 121.3125 0 C 115.53125 0 112.640625 -2.894531 112.640625 -8.6875 L 112.640625 -60.8125 C 109.742188 -49.03125 105.207031 -38.3125 99.03125 -28.65625 C 92.851562 -19.007812 85.660156 -11.335938 77.453125 -5.640625 C 69.242188 0.0429688 60.316406 2.890625 50.671875 2.890625 C 43.523438 2.890625 36.863281 1.441406 30.6875 -1.453125 C 24.507812 -4.347656 19.539062 -8.59375 15.78125 -14.1875 C 12.019531 -19.78125 10.140625 -26.726562 10.140625 -35.03125 C 10.140625 -45.070312 13.128906 -53.273438 19.109375 -59.640625 C 25.097656 -66.015625 33.0625 -71.226562 43 -75.28125 C 52.9375 -79.332031 63.601562 -82.90625 75 -86 L 112.640625 -96.125 C 111.859375 -110.21875 107.992188 -120.59375 101.046875 -127.25 C 94.097656 -133.914062 84.445312 -137.25 72.09375 -137.25 C 63.40625 -137.25 54.957031 -135.171875 46.75 -131.015625 C 38.550781 -126.867188 30.785156 -120.351562 23.453125 -111.46875 L 20.84375 -113.796875 C 29.144531 -124.023438 38.554688 -132.082031 49.078125 -137.96875 C 59.597656 -143.851562 71.128906 -146.796875 83.671875 -146.796875 C 101.242188 -146.796875 114.175781 -142.210938 122.46875 -133.046875 C 130.769531 -123.878906 134.921875 -111.09375 134.921875 -94.6875 L 134.921875 -36.765625 C 134.921875 -24.992188 135.738281 -16.890625 137.375 -12.453125 C 139.019531 -8.015625 142.066406 -5.117188 146.515625 -3.765625 L 146.515625 0 Z M 31.84375 -43.140625 C 31.84375 -33.679688 34.691406 -26.488281 40.390625 -21.5625 C 46.085938 -16.644531 53.085938 -14.1875 61.390625 -14.1875 C 69.109375 -14.1875 76.101562 -16.359375 82.375 -20.703125 C 88.644531 -25.046875 94 -30.691406 98.4375 -37.640625 C 102.882812 -44.585938 106.363281 -52.113281 108.875 -60.21875 C 111.382812 -68.332031 112.640625 -76.148438 112.640625 -83.671875 L 112.640625 -92.359375 L 76.15625 -82.515625 C 69.007812 -80.585938 62.007812 -78.03125 55.15625 -74.84375 C 48.300781 -71.664062 42.703125 -67.566406 38.359375 -62.546875 C 34.015625 -57.523438 31.84375 -51.054688 31.84375 -43.140625 Z M 31.84375 -43.140625 "/></g></g></g><g fill="#000000" fill-opacity="1"><g transform="translate(477.154988, 230.684122)"><g><path d="M 9.265625 0 L 9.265625 -3.765625 C 13.703125 -5.117188 16.738281 -8.015625 18.375 -12.453125 C 20.019531 -16.890625 20.84375 -24.992188 20.84375 -36.765625 L 20.84375 -103.375 C 20.84375 -110.125 20.457031 -115.1875 19.6875 -118.5625 C 18.914062 -121.945312 17.660156 -124.410156 15.921875 -125.953125 C 14.179688 -127.492188 11.960938 -128.84375 9.265625 -130 L 9.265625 -133.1875 L 41.109375 -147.09375 L 43.4375 -145.0625 L 43.4375 -120.15625 C 51.925781 -126.914062 61.476562 -133.046875 72.09375 -138.546875 C 82.707031 -144.046875 93.613281 -146.796875 104.8125 -146.796875 C 119.101562 -146.796875 130.300781 -142.644531 138.40625 -134.34375 C 146.507812 -126.050781 150.5625 -113.410156 150.5625 -96.421875 L 150.5625 -36.765625 C 150.5625 -24.992188 151.378906 -16.890625 153.015625 -12.453125 C 154.660156 -8.015625 157.703125 -5.117188 162.140625 -3.765625 L 162.140625 0 L 116.390625 0 L 116.390625 -3.765625 C 120.835938 -5.117188 123.878906 -8.015625 125.515625 -12.453125 C 127.160156 -16.890625 127.984375 -24.992188 127.984375 -36.765625 L 127.984375 -90.625 C 127.984375 -105.6875 124.796875 -117.222656 118.421875 -125.234375 C 112.054688 -133.242188 102.503906 -137.25 89.765625 -137.25 C 81.847656 -137.25 73.976562 -135.171875 66.15625 -131.015625 C 58.34375 -126.867188 50.769531 -121.707031 43.4375 -115.53125 L 43.4375 -36.765625 C 43.4375 -24.992188 44.300781 -16.890625 46.03125 -12.453125 C 47.769531 -8.015625 50.765625 -5.117188 55.015625 -3.765625 L 55.015625 0 Z M 9.265625 0 "/></g></g></g><g fill="#000000" fill-opacity="1"><g transform="translate(0.0000035, 369.824953)"><g><path d="M 108.75 1.203125 C 106.101562 1.203125 102.847656 0.136719 98.984375 -1.984375 C 95.128906 -4.109375 91.015625 -6.984375 86.640625 -10.609375 C 82.273438 -14.234375 77.847656 -18.234375 73.359375 -22.609375 C 69.210938 -14.785156 64.175781 -8.773438 58.25 -4.578125 C 52.320312 -0.378906 45.851562 1.71875 38.84375 1.71875 C 32.164062 1.71875 26.265625 0.164062 21.140625 -2.9375 C 16.023438 -6.039062 12.054688 -10.125 9.234375 -15.1875 C 6.410156 -20.25 5 -25.773438 5 -31.765625 C 5 -39.472656 7.5 -46.519531 12.5 -52.90625 C 17.507812 -59.289062 25.253906 -64.265625 35.734375 -67.828125 C 33.085938 -72.203125 30.957031 -76.460938 29.34375 -80.609375 C 27.726562 -84.753906 26.921875 -88.894531 26.921875 -93.03125 C 26.921875 -97.289062 28.128906 -101.664062 30.546875 -106.15625 C 32.960938 -110.644531 36.875 -114.410156 42.28125 -117.453125 C 47.695312 -120.503906 54.890625 -122.03125 63.859375 -122.03125 C 67.203125 -122.03125 71.085938 -121.65625 75.515625 -120.90625 C 79.941406 -120.164062 84.054688 -118.703125 87.859375 -116.515625 L 89.75 -96.484375 L 88.203125 -96.140625 C 85.441406 -102.585938 82.390625 -107.421875 79.046875 -110.640625 C 75.710938 -113.859375 72.316406 -116.015625 68.859375 -117.109375 C 65.410156 -118.203125 62.019531 -118.75 58.6875 -118.75 C 53.96875 -118.75 50.113281 -117.769531 47.125 -115.8125 C 44.132812 -113.863281 41.945312 -111.445312 40.5625 -108.5625 C 39.175781 -105.6875 38.484375 -102.867188 38.484375 -100.109375 C 38.484375 -95.390625 39.863281 -90.296875 42.625 -84.828125 C 45.394531 -79.367188 48.820312 -73.929688 52.90625 -68.515625 C 56.988281 -63.109375 61.046875 -58.050781 65.078125 -53.34375 C 70.140625 -47.46875 75.375 -41.738281 80.78125 -36.15625 C 86.1875 -30.582031 91.421875 -25.578125 96.484375 -21.140625 C 101.546875 -16.710938 106.175781 -13.175781 110.375 -10.53125 C 114.582031 -7.882812 118.007812 -6.5625 120.65625 -6.5625 C 123.414062 -6.5625 125.484375 -7.882812 126.859375 -10.53125 C 128.242188 -13.175781 129.195312 -16.566406 129.71875 -20.703125 C 130.238281 -24.847656 130.5 -29.164062 130.5 -33.65625 C 130.5 -37.113281 130.066406 -40.910156 129.203125 -45.046875 C 128.335938 -49.191406 127.210938 -52.90625 125.828125 -56.1875 C 124.453125 -59.46875 122.84375 -61.394531 121 -61.96875 L 83.203125 -61.96875 L 84.0625 -64.390625 L 146.375 -64.390625 L 145.515625 -61.96875 L 125.484375 -61.96875 C 130.316406 -59.78125 134.203125 -56.382812 137.140625 -51.78125 C 140.078125 -47.175781 141.546875 -42.171875 141.546875 -36.765625 C 141.546875 -31.929688 140.535156 -27.238281 138.515625 -22.6875 C 136.503906 -18.144531 133.859375 -14.0625 130.578125 -10.4375 C 127.296875 -6.8125 123.753906 -3.960938 119.953125 -1.890625 C 116.160156 0.167969 112.425781 1.203125 108.75 1.203125 Z M 17.09375 -37.96875 C 17.09375 -33.019531 18.210938 -28.21875 20.453125 -23.5625 C 22.691406 -18.90625 25.96875 -15.078125 30.28125 -12.078125 C 34.601562 -9.085938 39.753906 -7.59375 45.734375 -7.59375 C 50.222656 -7.59375 54.851562 -9.03125 59.625 -11.90625 C 64.40625 -14.78125 68.410156 -18.925781 71.640625 -24.34375 C 68.640625 -27.332031 65.671875 -30.46875 62.734375 -33.75 C 59.804688 -37.03125 57.019531 -40.28125 54.375 -43.5 C 51.03125 -47.519531 47.863281 -51.398438 44.875 -55.140625 C 41.882812 -58.890625 39.238281 -62.546875 36.9375 -66.109375 C 29.226562 -63.117188 23.992188 -59.035156 21.234375 -53.859375 C 18.472656 -48.679688 17.09375 -43.382812 17.09375 -37.96875 Z M 17.09375 -37.96875 "/></g></g></g><g fill="#000000" fill-opacity="1"><g transform="translate(134.835318, 490.229111)"><g><path d="M 13.625 0 L 13.625 -3.46875 C 17.726562 -4.71875 20.535156 -7.390625 22.046875 -11.484375 C 23.566406 -15.585938 24.328125 -23.070312 24.328125 -33.9375 L 24.328125 -153.15625 C 24.328125 -164.195312 23.566406 -171.722656 22.046875 -175.734375 C 20.535156 -179.742188 17.726562 -182.375 13.625 -183.625 L 13.625 -187.09375 L 56.9375 -187.09375 L 56.9375 -183.625 C 52.832031 -182.375 50.019531 -179.742188 48.5 -175.734375 C 46.988281 -171.722656 46.234375 -164.195312 46.234375 -153.15625 L 46.234375 -33.9375 C 46.234375 -23.070312 46.988281 -15.585938 48.5 -11.484375 C 50.019531 -7.390625 52.832031 -4.71875 56.9375 -3.46875 L 56.9375 0 Z M 13.625 0 "/></g></g></g><g fill="#000000" fill-opacity="1"><g transform="translate(205.398337, 490.229111)"><g><path d="M 10.15625 0 L 10.15625 -3.46875 C 14.25 -4.71875 17.050781 -7.390625 18.5625 -11.484375 C 20.082031 -15.585938 20.84375 -23.070312 20.84375 -33.9375 L 20.84375 -175.609375 C 20.84375 -181.835938 20.441406 -186.507812 19.640625 -189.625 C 18.835938 -192.75 17.679688 -195.023438 16.171875 -196.453125 C 14.660156 -197.878906 12.65625 -199.125 10.15625 -200.1875 L 10.15625 -203.140625 L 39.296875 -215.96875 L 41.703125 -214.09375 L 41.703125 -33.9375 C 41.703125 -23.070312 42.457031 -15.585938 43.96875 -11.484375 C 45.476562 -7.390625 48.285156 -4.71875 52.390625 -3.46875 L 52.390625 0 Z M 10.15625 0 "/></g></g></g><g fill="#000000" fill-opacity="1"><g transform="translate(268.744669, 490.229111)"><g><path d="M 7.21875 0 L 7.21875 -3.46875 C 11.3125 -4.71875 14.113281 -7.390625 15.625 -11.484375 C 17.144531 -15.585938 17.90625 -23.070312 17.90625 -33.9375 L 17.90625 -175.609375 C 17.90625 -181.835938 17.503906 -186.507812 16.703125 -189.625 C 15.898438 -192.75 14.738281 -195.023438 13.21875 -196.453125 C 11.707031 -197.878906 9.707031 -199.125 7.21875 -200.1875 L 7.21875 -203.140625 L 36.34375 -215.96875 L 38.75 -214.09375 L 38.75 -110.921875 C 46.59375 -117.160156 55.414062 -122.816406 65.21875 -127.890625 C 75.019531 -132.972656 85.085938 -135.515625 95.421875 -135.515625 C 108.609375 -135.515625 118.941406 -131.679688 126.421875 -124.015625 C 133.910156 -116.359375 137.65625 -104.6875 137.65625 -89 L 137.65625 -33.9375 C 137.65625 -23.070312 138.410156 -15.585938 139.921875 -11.484375 C 141.429688 -7.390625 144.238281 -4.71875 148.34375 -3.46875 L 148.34375 0 L 106.109375 0 L 106.109375 -3.46875 C 110.210938 -4.71875 113.019531 -7.390625 114.53125 -11.484375 C 116.039062 -15.585938 116.796875 -23.070312 116.796875 -33.9375 L 116.796875 -83.65625 C 116.796875 -97.550781 113.851562 -108.195312 107.96875 -115.59375 C 102.09375 -122.988281 93.273438 -126.6875 81.515625 -126.6875 C 74.210938 -126.6875 66.953125 -124.769531 59.734375 -120.9375 C 52.515625 -117.113281 45.519531 -112.347656 38.75 -106.640625 L 38.75 -33.9375 C 38.75 -23.070312 39.503906 -15.585938 41.015625 -11.484375 C 42.535156 -7.390625 45.347656 -4.71875 49.453125 -3.46875 L 49.453125 0 Z M 7.21875 0 "/></g></g></g><g fill="#000000" fill-opacity="1"><g transform="translate(423.502199, 490.229111)"><g><path d="M 111.984375 0 C 106.640625 0 103.96875 -2.671875 103.96875 -8.015625 L 103.96875 -56.125 C 101.300781 -45.257812 97.113281 -35.367188 91.40625 -26.453125 C 85.707031 -17.546875 79.070312 -10.460938 71.5 -5.203125 C 63.925781 0.0429688 55.6875 2.671875 46.78125 2.671875 C 40.1875 2.671875 34.035156 1.335938 28.328125 -1.328125 C 22.628906 -4.003906 18.039062 -7.925781 14.5625 -13.09375 C 11.09375 -18.257812 9.359375 -24.675781 9.359375 -32.34375 C 9.359375 -41.601562 12.117188 -49.171875 17.640625 -55.046875 C 23.160156 -60.929688 30.507812 -65.742188 39.6875 -69.484375 C 48.863281 -73.234375 58.707031 -76.53125 69.21875 -79.375 L 103.96875 -88.734375 C 103.257812 -101.742188 99.695312 -111.320312 93.28125 -117.46875 C 86.863281 -123.613281 77.953125 -126.6875 66.546875 -126.6875 C 58.535156 -126.6875 50.742188 -124.769531 43.171875 -120.9375 C 35.597656 -117.113281 28.425781 -111.101562 21.65625 -102.90625 L 19.25 -105.046875 C 26.90625 -114.484375 35.585938 -121.921875 45.296875 -127.359375 C 55.015625 -132.796875 65.664062 -135.515625 77.25 -135.515625 C 93.457031 -135.515625 105.390625 -131.28125 113.046875 -122.8125 C 120.710938 -114.351562 124.546875 -102.550781 124.546875 -87.40625 L 124.546875 -33.9375 C 124.546875 -23.070312 125.300781 -15.585938 126.8125 -11.484375 C 128.332031 -7.390625 131.144531 -4.71875 135.25 -3.46875 L 135.25 0 Z M 29.40625 -39.828125 C 29.40625 -31.097656 32.03125 -24.457031 37.28125 -19.90625 C 42.539062 -15.363281 49 -13.09375 56.65625 -13.09375 C 63.789062 -13.09375 70.253906 -15.097656 76.046875 -19.109375 C 81.835938 -23.117188 86.78125 -28.332031 90.875 -34.75 C 94.96875 -41.164062 98.171875 -48.113281 100.484375 -55.59375 C 102.804688 -63.082031 103.96875 -70.300781 103.96875 -77.25 L 103.96875 -85.265625 L 70.296875 -76.171875 C 63.703125 -74.390625 57.238281 -72.03125 50.90625 -69.09375 C 44.582031 -66.15625 39.414062 -62.367188 35.40625 -57.734375 C 31.40625 -53.097656 29.40625 -47.128906 29.40625 -39.828125 Z M 29.40625 -39.828125 "/></g></g></g><g fill="#000000" fill-opacity="1"><g transform="translate(565.162801, 490.229111)"><g><path d="M 8.546875 0 L 8.546875 -3.46875 C 12.648438 -4.71875 15.457031 -7.390625 16.96875 -11.484375 C 18.488281 -15.585938 19.25 -23.070312 19.25 -33.9375 L 19.25 -95.421875 C 19.25 -101.660156 18.847656 -106.335938 18.046875 -109.453125 C 17.242188 -112.566406 16.082031 -114.835938 14.5625 -116.265625 C 13.050781 -117.691406 11.046875 -118.941406 8.546875 -120.015625 L 8.546875 -122.953125 L 37.6875 -135.78125 L 40.09375 -133.90625 L 40.09375 -111.1875 C 48.113281 -117.601562 56.929688 -123.257812 66.546875 -128.15625 C 76.171875 -133.0625 85.796875 -135.515625 95.421875 -135.515625 C 115.554688 -135.515625 127.941406 -127.140625 132.578125 -110.390625 C 140.585938 -116.804688 149.535156 -122.597656 159.421875 -127.765625 C 169.316406 -132.929688 179.253906 -135.515625 189.234375 -135.515625 C 202.242188 -135.515625 212.046875 -131.90625 218.640625 -124.6875 C 225.234375 -117.46875 228.53125 -106.285156 228.53125 -91.140625 L 228.53125 -33.9375 C 228.53125 -23.070312 229.332031 -15.585938 230.9375 -11.484375 C 232.539062 -7.390625 235.300781 -4.71875 239.21875 -3.46875 L 239.21875 0 L 196.984375 0 L 196.984375 -3.46875 C 201.085938 -4.71875 203.894531 -7.390625 205.40625 -11.484375 C 206.914062 -15.585938 207.671875 -23.070312 207.671875 -33.9375 L 207.671875 -86.328125 C 207.671875 -113.234375 197.515625 -126.6875 177.203125 -126.6875 C 169.546875 -126.6875 162.148438 -124.816406 155.015625 -121.078125 C 147.890625 -117.335938 140.675781 -112.613281 133.375 -106.90625 C 134.445312 -102.457031 134.984375 -97.203125 134.984375 -91.140625 L 134.984375 -33.9375 C 134.984375 -23.070312 135.738281 -15.585938 137.25 -11.484375 C 138.757812 -7.390625 141.566406 -4.71875 145.671875 -3.46875 L 145.671875 0 L 103.4375 0 L 103.4375 -3.46875 C 107.53125 -4.71875 110.332031 -7.390625 111.84375 -11.484375 C 113.363281 -15.585938 114.125 -23.070312 114.125 -33.9375 L 114.125 -86.328125 C 114.125 -113.234375 103.96875 -126.6875 83.65625 -126.6875 C 76 -126.6875 68.648438 -124.859375 61.609375 -121.203125 C 54.566406 -117.554688 47.394531 -112.972656 40.09375 -107.453125 L 40.09375 -33.9375 C 40.09375 -23.070312 40.847656 -15.585938 42.359375 -11.484375 C 43.878906 -7.390625 46.6875 -4.71875 50.78125 -3.46875 L 50.78125 0 Z M 8.546875 0 "/></g></g></g></g></g></svg>